<svg xmlns="http://www.w3.org/2000/svg" width="124.39" height="124.387" viewBox="0 0 124.39 124.387"><defs><style>.a{fill:#8ecc09;}.b{fill:#fff;}</style></defs><path class="a" d="M1559.193,2326.869A62.194,62.194,0,1,0,1497,2264.677a62.2,62.2,0,0,0,62.195,62.192Z" transform="translate(-1496.998 -2202.481)"/><path class="b" d="M1638.4,2352.18a4.985,4.985,0,0,0-7.53,0c-1.76,1.748-3.52,3.492-5.252,5.268a1.033,1.033,0,0,1-1.449.265c-1.141-.62-2.352-1.122-3.446-1.8a54.566,54.566,0,0,1-13.168-11.985,31.133,31.133,0,0,1-4.722-7.562,1.085,1.085,0,0,1,.268-1.39c1.76-1.7,3.477-3.446,5.206-5.194,2.414-2.426,2.414-5.268-.012-7.709-1.378-1.39-2.753-2.75-4.131-4.143-1.418-1.418-2.827-2.854-4.26-4.26a5.015,5.015,0,0,0-7.53.015c-1.775,1.745-3.477,3.536-5.283,5.252a8.58,8.58,0,0,0-2.694,5.786,24.5,24.5,0,0,0,1.9,10.548,64.128,64.128,0,0,0,11.377,18.954,70.389,70.389,0,0,0,23.319,18.242,33.693,33.693,0,0,0,12.916,3.757,9.456,9.456,0,0,0,8.122-3.091c1.51-1.686,3.212-3.224,4.809-4.837,2.37-2.4,2.383-5.3.031-7.666q-4.217-4.24-8.464-8.449Z" transform="translate(-1557.667 -2278.534)"/><path class="b" d="M1714.549,2356.943l5.459-.934a24.507,24.507,0,0,0-20.729-20.107l-.771,5.49a18.936,18.936,0,0,1,16.041,15.551Z" transform="translate(-1636.73 -2294.998)"/><path class="b" d="M1724.717,2301.335a40.268,40.268,0,0,0-23.082-11.513l-.767,5.49a35.133,35.133,0,0,1,29.724,28.808l5.459-.934a40.544,40.544,0,0,0-11.334-21.851Z" transform="translate(-1638.418 -2263.066)"/></svg>