<svg xmlns="http://www.w3.org/2000/svg" width="222.682" height="64.018" viewBox="0 0 222.682 64.018"><defs><style>.a{fill:#44c8f5;}</style></defs><g transform="translate(-1377.528 142.747)"><path class="a" d="M294.367,661.02c10.2-.827,18.288,2.981,25.049,9.978,1.819,1.883,3.372,4.025,5.05,6.045,3.927,4.812,11.345,4.286,11.345,4.286l-.006,20.97a30.433,30.433,0,0,1-11.78-1.21c-7.272-2.257-12.839-6.815-17.4-12.776a30.989,30.989,0,0,0-3.551-3.982,10.43,10.43,0,0,0-8.706-2.715Z" transform="translate(1136.012 -781.194)"/><path class="a" d="M251.68,672.395a11.3,11.3,0,1,1,0-22.59V629.216a31.884,31.884,0,0,0,0,63.768l20.972-.011-.006-20.586Z" transform="translate(1157.732 -771.963)"/><rect class="a" width="21.382" height="21.38" transform="translate(1471.835 -121.243)"/><path class="a" d="M396.87,639.887V639.7c0-4.342,3.1-6.608,6.968-6.608,3.269,0,6.275,1.383,6.465,5.511h-5.082c-.12-.739-.262-1.336-1.24-1.336-1.121,0-1.551.691-1.551,2.338v.191c0,1.718.382,2.577,1.622,2.577.883,0,1.336-.549,1.432-1.551h4.892c-.073,3.365-2.171,5.465-6.705,5.465-3.841,0-6.8-2.029-6.8-6.4" transform="translate(1106.156 -773.091)"/><path class="a" d="M425.562,639.768v-.191c0-1.694-.453-2.505-1.622-2.505-1.121,0-1.67.739-1.67,2.434v.191c0,1.79.476,2.625,1.67,2.625,1.145,0,1.622-.836,1.622-2.554m-8.828.119V639.7c0-4.152,3.174-6.608,7.206-6.608,4.008,0,7.157,2.361,7.157,6.441v.192c0,4.2-3.2,6.561-7.182,6.561s-7.182-2.172-7.182-6.4" transform="translate(1100.37 -773.091)"/><path class="a" d="M438.753,633.469h5.464v2a4.456,4.456,0,0,1,4.152-2.386c2.314,0,3.912,1.55,3.912,4.509v8.35h-5.464V638.98c0-1-.334-1.551-1.192-1.551-.979,0-1.408.549-1.408,1.813v6.7h-5.464Z" transform="translate(1093.957 -773.091)"/><path class="a" d="M460.232,633.469H465.7v2a4.456,4.456,0,0,1,4.152-2.386c2.315,0,3.912,1.55,3.912,4.509v8.35H468.3V638.98c0-1-.334-1.551-1.193-1.551-.978,0-1.408.549-1.408,1.813v6.7h-5.464Z" transform="translate(1087.701 -773.091)"/><path class="a" d="M489.679,638.289c-.024-1.026-.454-1.789-1.5-1.789-.907,0-1.552.573-1.7,1.789Zm-8.709,1.6V639.7c0-4.152,3.269-6.608,7.206-6.608,3.673,0,6.727,2.051,6.727,6.56v1.169h-8.447a1.807,1.807,0,0,0,1.863,1.837c1.145,0,1.479-.6,1.6-1.1h5.035c-.358,2.959-2.554,4.725-6.824,4.725-4.105,0-7.157-2.219-7.157-6.4" transform="translate(1081.66 -773.091)"/><path class="a" d="M501.64,639.887V639.7c0-4.342,3.1-6.608,6.967-6.608,3.269,0,6.275,1.383,6.467,5.511h-5.083c-.12-.739-.262-1.336-1.242-1.336-1.12,0-1.551.691-1.551,2.338v.191c0,1.718.381,2.577,1.622,2.577.884,0,1.337-.549,1.432-1.551h4.892c-.071,3.365-2.172,5.465-6.705,5.465-3.841,0-6.8-2.029-6.8-6.4" transform="translate(1075.64 -773.091)"/><path class="a" d="M522.6,640.622v-4.461h-1.359v-3.556H522.6v-2.482h5.464v2.482h2.219v3.556h-2.219V640.1c0,.741.405,1.05,1.121,1.05a2.717,2.717,0,0,0,1.05-.191v4.056a10.36,10.36,0,0,1-2.7.406c-3.125,0-4.939-1.36-4.939-4.8" transform="translate(1069.932 -772.227)"/><path class="a" d="M396.332,667.545h5.655l1.264,6.132,1.6-6.132h4.342l1.337,6.132,1.575-6.132h5.082L413.2,680.024h-5.057l-1.479-5.727-1.408,5.727h-5.2Z" transform="translate(1106.313 -783.127)"/><path class="a" d="M427.1,665.162h5.44v12.479H427.1Zm-.167-3.125a2.9,2.9,0,1,1,2.887,2.673,2.695,2.695,0,0,1-2.887-2.673" transform="translate(1097.399 -780.744)"/><path class="a" d="M437.923,674.542V670.08h-1.359v-3.556h1.359v-2.481h5.464v2.481h2.219v3.556h-2.219v3.937c0,.74.406,1.05,1.121,1.05a2.72,2.72,0,0,0,1.05-.191v4.056a10.374,10.374,0,0,1-2.7.405c-3.126,0-4.939-1.359-4.939-4.8" transform="translate(1094.594 -782.107)"/><path class="a" d="M451.276,660.14h5.464v7.252a4.459,4.459,0,0,1,4.152-2.386c2.315,0,3.913,1.551,3.913,4.51v8.352H459.34V670.9c0-1-.333-1.551-1.193-1.551-.978,0-1.408.549-1.408,1.814v6.7h-5.464Z" transform="translate(1090.309 -780.97)"/><path class="a" d="M397.611,701.308h5.464v2.005a4.456,4.456,0,0,1,4.152-2.386c2.315,0,3.913,1.551,3.913,4.509v8.351h-5.464V706.82c0-1-.334-1.551-1.193-1.551-.978,0-1.408.549-1.408,1.813v6.7h-5.464Z" transform="translate(1105.94 -792.85)"/><path class="a" d="M426.057,709.42v-.406h-.835c-1.289,0-1.5.239-1.5.836,0,.43.381.692,1,.692a1.2,1.2,0,0,0,1.336-1.121m-7.707.906c0-2.959,2.171-4.08,6.823-4.08h.884v-.071c0-.788-.047-1.551-1.122-1.551a1.061,1.061,0,0,0-1.1,1.074h-5.059c.167-3.078,2.578-4.772,6.491-4.772,3.984,0,6.179,1.622,6.179,4.843v8.017H426.2v-1.407a3.837,3.837,0,0,1-3.6,1.742c-2.22,0-4.247-1.1-4.247-3.795" transform="translate(1099.899 -792.85)"/><path class="a" d="M439.405,708.462V704h-1.359v-3.556h1.359v-2.481h5.464v2.481h2.219V704H444.87v3.937c0,.74.406,1.05,1.121,1.05a2.713,2.713,0,0,0,1.049-.191v4.056a10.328,10.328,0,0,1-2.7.406c-3.126,0-4.939-1.36-4.939-4.8" transform="translate(1094.163 -791.987)"/><path class="a" d="M452.623,709.72v-8.255h5.464v7.254c0,1,.357,1.55,1.193,1.55,1.025,0,1.432-.549,1.432-1.813v-6.991h5.464v12.479h-5.464v-1.908a4.007,4.007,0,0,1-3.961,2.242c-2.362,0-4.128-1.552-4.128-4.558" transform="translate(1089.917 -793.007)"/><path class="a" d="M474.237,701.4H479.7v2.6a3.782,3.782,0,0,1,3.985-2.744v5.082c-2.648-.191-3.985.668-3.985,2.1v5.44h-5.464Z" transform="translate(1083.621 -792.946)"/><path class="a" d="M497.523,706.128c-.025-1.026-.454-1.79-1.5-1.79-.906,0-1.55.573-1.694,1.79Zm-8.709,1.6v-.191c0-4.151,3.268-6.609,7.2-6.609,3.675,0,6.729,2.052,6.729,6.562v1.169H494.3a1.807,1.807,0,0,0,1.861,1.838c1.145,0,1.48-.6,1.6-1.1H502.8c-.359,2.959-2.554,4.724-6.824,4.724-4.1,0-7.157-2.218-7.157-6.394" transform="translate(1079.375 -792.85)"/></g></svg>