<svg xmlns="http://www.w3.org/2000/svg" xmlns:xlink="http://www.w3.org/1999/xlink" width="729.607" height="729.605" viewBox="0 0 729.607 729.605"><defs><style>.a{fill:url(#a);}.b,.c{opacity:0.8;}.c{fill:#b0f0f7;}.d{font-size:119px;font-family:Kalam-Regular, Kalam;letter-spacing:-0.02em;}.e{fill:#b59d4f;}.f{filter:url(#b);}</style><linearGradient id="a" x1="0.5" x2="0.613" y2="0.907" gradientUnits="objectBoundingBox"><stop offset="0" stop-color="#fffa70"/><stop offset="1" stop-color="#fef6bb"/></linearGradient><filter id="b" x="0" y="0" width="729.607" height="729.605" filterUnits="userSpaceOnUse"><feOffset dy="3" input="SourceAlpha"/><feGaussianBlur stdDeviation="15" result="c"/><feFlood flood-opacity="0.439"/><feComposite operator="in" in2="c"/><feComposite in="SourceGraphic"/></filter></defs><g transform="translate(-612.257 -181.273)"><g transform="translate(138.725 217.802) rotate(-3)"><g class="f" transform="matrix(1, 0.05, -0.05, 1, 474.79, -11.7)"><path class="a" d="M1063,61.233l-547.128,61.46,61.46,547.128,547.13-61.46ZM545.308,158.155a13.165,13.165,0,1,1,14.553,11.613A13.168,13.168,0,0,1,545.308,158.155ZM552,217.694a13.165,13.165,0,1,1,14.553,11.613A13.168,13.168,0,0,1,552,217.694Zm6.69,59.538a13.164,13.164,0,1,1,14.551,11.613A13.165,13.165,0,0,1,558.686,277.232Zm6.688,59.538a13.164,13.164,0,1,1,14.551,11.613A13.165,13.165,0,0,1,565.374,336.771Zm6.688,59.538a13.164,13.164,0,1,1,14.551,11.613A13.165,13.165,0,0,1,572.062,396.309Zm6.688,59.539A13.164,13.164,0,1,1,593.3,467.461,13.165,13.165,0,0,1,578.75,455.848Zm6.688,59.538A13.164,13.164,0,1,1,599.99,527,13.165,13.165,0,0,1,585.439,515.386Zm6.688,59.539a13.164,13.164,0,1,1,14.551,11.613A13.165,13.165,0,0,1,592.127,574.925Zm21.239,71.151a13.165,13.165,0,1,1,11.613-14.553A13.163,13.163,0,0,1,613.366,646.076Z" transform="translate(-473.37 39.7) rotate(-3)"/></g><g class="b" transform="translate(576.491 57.623)"><path class="c" d="M549.92,107.56q2.58,11.092,4.774,22.269c1.585,8.072,3.013,16.171,4.43,24.273l217.287-41.115a176.405,176.405,0,0,1-4.852-23.333c-.451-3.282-.829-6.649-2.293-9.619a10.685,10.685,0,0,1-1.432-3.566,18.7,18.7,0,0,1,.256-2.938,13.14,13.14,0,0,0-.714-4.357c-.624-3.3-3.478-8.038-3.119-11.551L548.119,98.52C549.038,101.345,549.328,105.011,549.92,107.56Z" transform="translate(-548.119 -57.623)"/></g></g><text class="d" transform="matrix(0.996, -0.087, 0.087, 0.996, 765, 603)"><tspan x="0" y="0">800-CwN</tspan></text><g transform="translate(-260 -36.341)"><g transform="translate(3212.105 148.805) rotate(45)"><path class="e" d="M-12873.341-3872.085v-16.751h-16.751v-9.993h16.751v-16.748h9.993v16.748h16.747v9.993h-16.747v16.751Z" transform="translate(11719.591 5257.577)"/></g></g></g></svg>