<svg id="Layer_1" data-name="Layer 1" xmlns="http://www.w3.org/2000/svg" viewBox="0 0 401 243.5"><defs><style>.cls-1{fill:#fff;}.cls-2{fill:#f8a61f;}</style></defs><g id="Union_7-2" data-name="Union 7-2"><path class="cls-1" d="M19,362.6l31.6-120,.8-3.1H30a26.42,26.42,0,0,1-10.7-2.2,27.47,27.47,0,0,1-8.7-5.9,28.5,28.5,0,0,1-5.9-8.7A28.09,28.09,0,0,1,2.5,212V161.5a26.42,26.42,0,0,1,2.2-10.7,27.47,27.47,0,0,1,5.9-8.7,28.5,28.5,0,0,1,8.7-5.9A28.09,28.09,0,0,1,30,134H371a26.42,26.42,0,0,1,10.7,2.2,27.47,27.47,0,0,1,8.7,5.9,28.5,28.5,0,0,1,5.9,8.7,28.1,28.1,0,0,1,2.25,10.7V212a26.42,26.42,0,0,1-2.2,10.7,27.47,27.47,0,0,1-5.9,8.7,28.5,28.5,0,0,1-8.7,5.9,27.9,27.9,0,0,1-10.7,2.2H107.45l-.7,1Z" transform="translate(0 -131.5)"/><path class="cls-2" d="M25,350.2,104.7,239l1.5-2.1H371a24.48,24.48,0,0,0,9.7-2,24.06,24.06,0,0,0,7.9-5.4,26.24,26.24,0,0,0,5.4-7.9,25.28,25.28,0,0,0,2-9.7V161.5a24.48,24.48,0,0,0-2-9.7,24.06,24.06,0,0,0-5.4-7.9,26.24,26.24,0,0,0-7.9-5.4,25.28,25.28,0,0,0-9.7-2H30a24.48,24.48,0,0,0-9.7,2,24.06,24.06,0,0,0-7.9,5.4A28.49,28.49,0,0,0,7,151.8a25.28,25.28,0,0,0-2,9.7V212a24.48,24.48,0,0,0,2,9.7,24.06,24.06,0,0,0,5.4,7.9,26.24,26.24,0,0,0,7.9,5.4,25.28,25.28,0,0,0,9.7,2H54.7L53,243.3,25,350.2M13.1,375,48.2,242H30A30,30,0,0,1,0,212V161.5a30,30,0,0,1,30-30H371a30,30,0,0,1,30,30h0V212a30,30,0,0,1-30,30H108.7Z" transform="translate(0 -131.5)"/></g></svg>