<svg xmlns="http://www.w3.org/2000/svg" xmlns:xlink="http://www.w3.org/1999/xlink" width="1098.81" height="606.045" viewBox="0 0 1098.81 606.045"><defs><style>.a{fill:#fff;}.b,.c{stroke:none;}.c{fill:#f8a61f;}.d{filter:url(#a);}</style><filter id="a" x="0" y="0" width="1098.81" height="606.045" filterUnits="userSpaceOnUse"><feOffset dx="3" dy="3" input="SourceAlpha"/><feGaussianBlur stdDeviation="10" result="b"/><feFlood flood-opacity="0.478"/><feComposite operator="in" in2="b"/><feComposite in="SourceGraphic"/></filter></defs><g class="d" transform="matrix(1, 0, 0, 1, 0, 0)"><g class="a" transform="translate(13.25 87)"><path class="b" d="M 29.79316329956055 473.6066284179688 L 54.5271110534668 379.597412109375 L 55.35217666625977 376.4612731933594 L 52.109375 376.4612731933594 L 43.7525749206543 376.4612731933594 C 40.03910827636719 376.4612731933594 36.43804168701172 375.7344665527344 33.04937744140625 374.3011474609375 C 29.77510833740234 372.9161987304688 26.83390998840332 370.9330139160156 24.30750846862793 368.40673828125 C 21.78124237060547 365.8803405761719 19.79804229736328 362.9391479492188 18.41310882568359 359.6647338867188 C 16.97977638244629 356.2760620117188 16.25297546386719 352.6750183105469 16.25297546386719 348.9615478515625 L 16.25297546386719 -29.99966049194336 C 16.25297546386719 -33.71339416503906 16.97977638244629 -37.31459426879883 18.41310882568359 -40.70352935791016 C 19.79804229736328 -43.97792816162109 21.78124237060547 -46.91926193237305 24.30750846862793 -49.44565963745117 C 26.83390998840332 -51.97206115722656 29.77510833740234 -53.95526123046875 33.04937744140625 -55.34019470214844 C 36.43804168701172 -56.77352905273438 40.03910827636719 -57.50032806396484 43.7525749206543 -57.50032806396484 L 1022.562072753906 -57.50032806396484 C 1026.275756835938 -57.50032806396484 1029.876953125 -56.77352905273438 1033.265747070313 -55.34019470214844 C 1036.540161132813 -53.95526123046875 1039.481567382813 -51.97206115722656 1042.007934570313 -49.44565963745117 C 1044.534301757813 -46.91926193237305 1046.517456054688 -43.97792816162109 1047.902465820313 -40.70352935791016 C 1049.335815429688 -37.31459426879883 1050.062622070313 -33.71339416503906 1050.062622070313 -29.99966049194336 L 1050.062622070313 348.9615478515625 C 1050.062622070313 352.6750183105469 1049.335815429688 356.2760620117188 1047.902465820313 359.6647338867188 C 1046.517456054688 362.9391479492188 1044.534301757813 365.8803405761719 1042.007934570313 368.40673828125 C 1039.481567382813 370.9330139160156 1036.540161132813 372.9161987304688 1033.265747070313 374.3011474609375 C 1029.876953125 375.7344665527344 1026.275756835938 376.4612731933594 1022.562072753906 376.4612731933594 L 100.8667068481445 376.4612731933594 L 99.58444213867188 376.4612731933594 L 98.83631134033203 377.5025939941406 L 29.79316329956055 473.6066284179688 Z"/><path class="c" d="M 35.65073776245117 461.1685485839844 L 96.80604553222656 376.0439453125 L 98.30230712890625 373.9612731933594 L 100.8667068481445 373.9612731933594 L 1022.562072753906 373.9612731933594 C 1025.939331054688 373.9612731933594 1029.213012695313 373.3009948730469 1032.291870117188 371.9987487792969 C 1035.268310546875 370.7398071289063 1037.942626953125 368.9364624023438 1040.240234375 366.6388854980469 C 1042.537719726563 364.3412780761719 1044.341064453125 361.6672668457031 1045.60009765625 358.6908874511719 C 1046.90234375 355.612060546875 1047.562622070313 352.3385925292969 1047.562622070313 348.9615478515625 L 1047.562622070313 -29.99966049194336 C 1047.562622070313 -33.37699508666992 1046.90234375 -36.65059280395508 1045.599853515625 -39.72966003417969 C 1044.341064453125 -42.70606231689453 1042.537719726563 -45.38019561767578 1040.240234375 -47.67792892456055 C 1037.942626953125 -49.97552871704102 1035.268310546875 -51.77886199951172 1032.291870117188 -53.03766250610352 C 1029.213012695313 -54.34006118774414 1025.939331054688 -55.00032806396484 1022.562072753906 -55.00032806396484 L 43.7525749206543 -55.00032806396484 C 40.37550735473633 -55.00032806396484 37.10217666625977 -54.34006118774414 34.02337646484375 -53.03779602050781 C 31.04697608947754 -51.77886199951172 28.37284278869629 -49.97552871704102 26.07537651062012 -47.67792892456055 C 23.77777671813965 -45.38032913208008 21.97444343566895 -42.70606231689453 20.71550941467285 -39.72966003417969 C 19.41324234008789 -36.65059280395508 18.75297546386719 -33.37699508666992 18.75297546386719 -29.99966049194336 L 18.75297546386719 348.9615478515625 C 18.75297546386719 352.3385925292969 19.41324234008789 355.612060546875 20.71550941467285 358.6908874511719 C 21.97444343566895 361.6672668457031 23.77777671813965 364.3414001464844 26.07537651062012 366.6388854980469 C 28.37284278869629 368.9364624023438 31.04697608947754 370.7398071289063 34.02337646484375 371.9987487792969 C 37.10217666625977 373.3009948730469 40.37550735473633 373.9612731933594 43.7525749206543 373.9612731933594 L 52.109375 373.9612731933594 L 58.59497451782227 373.9612731933594 L 56.94484329223633 380.2335510253906 L 35.65073776245117 461.1685485839844 M 23.93550872802734 486.0450134277344 L 52.109375 378.9612731933594 L 43.7525749206543 378.9612731933594 C 27.1845760345459 378.9612731933594 13.75297546386719 365.5296630859375 13.75297546386719 348.9615478515625 L 13.75297546386719 -29.99966049194336 C 13.75297546386719 -46.56872940063477 27.1845760345459 -60.00032806396484 43.7525749206543 -60.00032806396484 L 1022.562072753906 -60.00032806396484 C 1039.130981445313 -60.00032806396484 1052.562622070313 -46.56872940063477 1052.562622070313 -29.99966049194336 L 1052.562622070313 348.9615478515625 C 1052.562622070313 365.5296630859375 1039.130981445313 378.9612731933594 1022.562072753906 378.9612731933594 L 100.8667068481445 378.9612731933594 L 23.93550872802734 486.0450134277344 Z"/></g></g></svg>