<svg xmlns="http://www.w3.org/2000/svg" xmlns:xlink="http://www.w3.org/1999/xlink" width="642.811" height="255.044" viewBox="0 0 642.811 255.044"><defs><style>.a{fill:rgba(230,206,166,0.78);}.b,.c{stroke:none;}.c{fill:#f8a61f;}.d{filter:url(#a);}</style><filter id="a" x="0" y="0" width="642.811" height="255.044" filterUnits="userSpaceOnUse"><feOffset dx="3" dy="3" input="SourceAlpha"/><feGaussianBlur stdDeviation="10" result="b"/><feFlood flood-opacity="0.478"/><feComposite operator="in" in2="b"/><feComposite in="SourceGraphic"/></filter></defs><g class="d" transform="matrix(1, 0, 0, 1, 0, 0)"><g class="a" transform="translate(10811 1338)"><path class="b" d="M -10765.3193359375 -1119.855712890625 L -10737.8408203125 -1194.572265625 L -10737.345703125 -1195.91748046875 L -10738.779296875 -1195.91748046875 L -10754 -1195.91748046875 C -10757.916015625 -1195.91748046875 -10761.7138671875 -1196.68408203125 -10765.2880859375 -1198.196044921875 C -10768.7412109375 -1199.65673828125 -10771.8427734375 -1201.747924804688 -10774.5068359375 -1204.41162109375 C -10777.1708984375 -1207.075317382813 -10779.26171875 -1210.177001953125 -10780.72265625 -1213.630249023438 C -10782.234375 -1217.204956054688 -10783.0009765625 -1221.002685546875 -10783.0009765625 -1224.918212890625 L -10783.0009765625 -1281.000854492188 C -10783.0009765625 -1284.916259765625 -10782.234375 -1288.713989257813 -10780.72265625 -1292.288452148438 C -10779.26171875 -1295.741333007813 -10777.1708984375 -1298.842651367188 -10774.5068359375 -1301.505981445313 C -10771.84375 -1304.169311523438 -10768.7421875 -1306.26025390625 -10765.2880859375 -1307.720703125 C -10761.7138671875 -1309.232421875 -10757.916015625 -1309.998901367188 -10754 -1309.998901367188 L -10231.19140625 -1309.998901367188 C -10227.2763671875 -1309.998901367188 -10223.478515625 -1309.232421875 -10219.9033203125 -1307.720703125 C -10216.4501953125 -1306.26025390625 -10213.3486328125 -1304.169311523438 -10210.6845703125 -1301.505981445313 C -10208.021484375 -1298.842651367188 -10205.9296875 -1295.741333007813 -10204.46875 -1292.288330078125 C -10202.95703125 -1288.713989257813 -10202.1904296875 -1284.916259765625 -10202.1904296875 -1281.000854492188 L -10202.1904296875 -1224.918212890625 C -10202.1904296875 -1221.002807617188 -10202.95703125 -1217.204956054688 -10204.46875 -1213.630249023438 C -10205.9296875 -1210.177001953125 -10208.021484375 -1207.075439453125 -10210.6845703125 -1204.41162109375 C -10213.3486328125 -1201.747924804688 -10216.4501953125 -1199.65673828125 -10219.9033203125 -1198.196044921875 C -10223.478515625 -1196.68408203125 -10227.2763671875 -1195.91748046875 -10231.19140625 -1195.91748046875 L -10688.525390625 -1195.91748046875 L -10688.9384765625 -1195.91748046875 L -10689.2314453125 -1195.6259765625 L -10765.3193359375 -1119.855712890625 Z"/><path class="c" d="M -10762.8193359375 -1123.756591796875 L -10689.9365234375 -1196.334594726563 L -10689.3515625 -1196.91748046875 L -10688.525390625 -1196.91748046875 L -10231.19140625 -1196.91748046875 C -10227.41015625 -1196.91748046875 -10223.744140625 -1197.657592773438 -10220.29296875 -1199.117065429688 C -10216.958984375 -1200.52734375 -10213.9638671875 -1202.546630859375 -10211.3916015625 -1205.118774414063 C -10208.8193359375 -1207.691040039063 -10206.80078125 -1210.685668945313 -10205.3896484375 -1214.019775390625 C -10203.9306640625 -1217.470581054688 -10203.1904296875 -1221.137329101563 -10203.1904296875 -1224.918212890625 L -10203.1904296875 -1281.000854492188 C -10203.1904296875 -1284.78173828125 -10203.9306640625 -1288.4482421875 -10205.3896484375 -1291.898803710938 C -10206.80078125 -1295.232543945313 -10208.8193359375 -1298.226928710938 -10211.3916015625 -1300.798828125 C -10213.9638671875 -1303.37060546875 -10216.958984375 -1305.3896484375 -10220.29296875 -1306.799682617188 C -10223.744140625 -1308.258911132813 -10227.41015625 -1308.998901367188 -10231.19140625 -1308.998901367188 L -10754 -1308.998901367188 C -10757.78125 -1308.998901367188 -10761.4482421875 -1308.258911132813 -10764.8984375 -1306.799560546875 C -10768.2333984375 -1305.3896484375 -10771.2275390625 -1303.37060546875 -10773.7998046875 -1300.798828125 C -10776.3720703125 -1298.226928710938 -10778.3916015625 -1295.232543945313 -10779.8017578125 -1291.898803710938 C -10781.2607421875 -1288.448364257813 -10782.0009765625 -1284.78173828125 -10782.0009765625 -1281.000854492188 L -10782.0009765625 -1224.918212890625 C -10782.0009765625 -1221.137329101563 -10781.2607421875 -1217.470458984375 -10779.8017578125 -1214.019775390625 C -10778.3916015625 -1210.685668945313 -10776.3720703125 -1207.69091796875 -10773.7998046875 -1205.118774414063 C -10771.2275390625 -1202.546630859375 -10768.232421875 -1200.52734375 -10764.8984375 -1199.117065429688 C -10761.4482421875 -1197.657592773438 -10757.78125 -1196.91748046875 -10754 -1196.91748046875 L -10738.779296875 -1196.91748046875 L -10735.9130859375 -1196.91748046875 L -10736.90234375 -1194.227172851563 L -10762.8193359375 -1123.756591796875 M -10767.8193359375 -1115.954711914063 L -10738.779296875 -1194.91748046875 L -10754 -1194.91748046875 C -10770.5693359375 -1194.91748046875 -10784.0009765625 -1208.349487304688 -10784.0009765625 -1224.918212890625 L -10784.0009765625 -1281.000854492188 C -10784.0009765625 -1297.569580078125 -10770.5693359375 -1310.998901367188 -10754 -1310.998901367188 L -10231.19140625 -1310.998901367188 C -10214.623046875 -1310.998901367188 -10201.1904296875 -1297.569580078125 -10201.1904296875 -1281.000854492188 L -10201.1904296875 -1224.918212890625 C -10201.1904296875 -1208.349487304688 -10214.623046875 -1194.91748046875 -10231.19140625 -1194.91748046875 L -10688.525390625 -1194.91748046875 L -10767.8193359375 -1115.954711914063 Z"/></g></g></svg>