<svg xmlns="http://www.w3.org/2000/svg" xmlns:xlink="http://www.w3.org/1999/xlink" width="722.809" height="442.114" viewBox="0 0 722.809 442.114"><defs><style>.a{fill:rgba(230,206,166,0.78);}.b,.c{stroke:none;}.c{fill:#f8a61f;}.d{filter:url(#a);}</style><filter id="a" x="0" y="0" width="722.809" height="442.114" filterUnits="userSpaceOnUse"><feOffset dx="3" dy="3" input="SourceAlpha"/><feGaussianBlur stdDeviation="10" result="b"/><feFlood flood-opacity="0.478"/><feComposite operator="in" in2="b"/><feComposite in="SourceGraphic"/></filter></defs><g class="d" transform="matrix(1, 0, 0, 1, 0, 0)"><g class="a" transform="translate(27 27)"><path class="b" d="M 20.86324691772461 378.0307312011719 L 58.22896194458008 269.3252258300781 L 58.68446350097656 268.0001220703125 L 57.28329849243164 268.0001220703125 L 30.00062942504883 268.0001220703125 C 26.08513069152832 268.0001220703125 22.2872142791748 267.2334594726563 18.71254730224609 265.7215576171875 C 15.25929641723633 264.2609558105469 12.15771389007568 262.1697998046875 9.494047164916992 259.5061340332031 C 6.830380439758301 256.8424682617188 4.739213466644287 253.7408752441406 3.278630256652832 250.2876281738281 C 1.766713500022888 246.7129669189453 1.000046849250793 242.9150390625 1.000046849250793 238.9995422363281 L 1.000046849250793 29.99971199035645 C 1.000046849250793 26.08437728881836 1.766630172729492 22.28671073913574 3.278630256652832 18.71212768554688 C 4.739213466644287 15.2590446472168 6.830380439758301 12.15754413604736 9.494047164916992 9.493961334228516 C 12.15771389007568 6.830294609069824 15.25929641723633 4.739211082458496 18.71254730224609 3.278627634048462 C 22.2872142791748 1.766627669334412 26.08513069152832 1.000044345855713 30.00062942504883 1.000044345855713 L 632.8088989257813 1.000044345855713 C 636.7242431640625 1.000044345855713 640.5218505859375 1.766627669334412 644.096435546875 3.278627634048462 C 647.5496215820313 4.739211082458496 650.6510620117188 6.830294609069824 653.314697265625 9.493961334228516 C 655.9783935546875 12.15754413604736 658.0694580078125 15.2590446472168 659.530029296875 18.71212768554688 C 661.0420532226563 22.28671073913574 661.8086547851563 26.08437728881836 661.8086547851563 29.99971199035645 L 661.8086547851563 238.9995422363281 C 661.8086547851563 242.9150390625 661.0420532226563 246.7129669189453 659.530029296875 250.2876281738281 C 658.0694580078125 253.7408752441406 655.978271484375 256.8424682617188 653.314697265625 259.5061340332031 C 650.6510620117188 262.1697998046875 647.5496215820313 264.2609558105469 644.096435546875 265.7215576171875 C 640.5218505859375 267.2335510253906 636.7242431640625 268.0001220703125 632.8088989257813 268.0001220703125 L 124.5681304931641 268.0001220703125 L 124.1352157592773 268.0001220703125 L 123.8389663696289 268.3157958984375 L 20.86324691772461 378.0307312011719 Z"/><path class="c" d="M 23.32437324523926 373.9472351074219 L 123.1097946166992 267.6313781738281 L 123.7023773193359 267.0001220703125 L 124.5681304931641 267.0001220703125 L 632.8088989257813 267.0001220703125 C 636.5896606445313 267.0001220703125 640.2562866210938 266.2600402832031 643.7069091796875 264.800537109375 C 647.0408935546875 263.390380859375 650.0354614257813 261.3711242675781 652.6076049804688 258.7990417480469 C 655.1796875 256.2268676757813 657.1988525390625 253.2321319580078 658.6090698242188 249.8981323242188 C 660.0685424804688 246.4472961425781 660.8086547851563 242.7805480957031 660.8086547851563 238.9995422363281 L 660.8086547851563 29.99971199035645 C 660.8086547851563 26.21896171569824 660.068603515625 22.55237770080566 658.6090698242188 19.10171127319336 C 657.1988525390625 15.76779460906982 655.1796875 12.77321147918701 652.6076049804688 10.2010440826416 C 650.0354614257813 7.628961086273193 647.0408935546875 5.609794616699219 643.7069702148438 4.199627876281738 C 640.2562866210938 2.740044355392456 636.5896606445313 2.000044345855713 632.8088989257813 2.000044345855713 L 30.00062942504883 2.000044345855713 C 26.21962928771973 2.000044345855713 22.55287933349609 2.740127801895142 19.10204696655273 4.199627876281738 C 15.76804733276367 5.609794616699219 12.77329730987549 7.628961086273193 10.20112991333008 10.2010440826416 C 7.62904691696167 12.77321147918701 5.60979700088501 15.76779460906982 4.199630260467529 19.10171127319336 C 2.740130186080933 22.55237770080566 2.000046968460083 26.21896171569824 2.000046968460083 29.99971199035645 L 2.000046968460083 238.9995422363281 C 2.000046968460083 242.7805480957031 2.740130186080933 246.4472961425781 4.199630260467529 249.8980407714844 C 5.60979700088501 253.2321319580078 7.62904691696167 256.2268676757813 10.20121383666992 258.7989501953125 C 12.77329730987549 261.3711242675781 15.76804733276367 263.390380859375 19.10213088989258 264.800537109375 C 22.55287933349609 266.2600402832031 26.21962928771973 267.0001220703125 30.00062942504883 267.0001220703125 L 57.28329849243164 267.0001220703125 L 60.08562850952148 267.0001220703125 L 59.17471313476563 269.6502990722656 L 23.32437324523926 373.9472351074219 M 18.40229606628418 382.1139526367188 L 57.28329849243164 269.0001220703125 L 30.00062942504883 269.0001220703125 C 13.43163013458252 269.0001220703125 4.687500040745363e-05 255.5685424804688 4.687500040745363e-05 238.9995422363281 L 4.687500040745363e-05 29.99971199035645 C 4.687500040745363e-05 13.43162727355957 13.43163013458252 4.439290205482394e-05 30.00062942504883 4.439290205482394e-05 L 632.8088989257813 4.439290205482394e-05 C 649.3770751953125 4.439290205482394e-05 662.8086547851563 13.43162727355957 662.8086547851563 29.99971199035645 L 662.8086547851563 238.9995422363281 C 662.8086547851563 255.5685424804688 649.3770751953125 269.0001220703125 632.8088989257813 269.0001220703125 L 124.5681304931641 269.0001220703125 L 18.40229606628418 382.1139526367188 Z"/></g></g></svg>