<svg id="Layer_1" data-name="Layer 1" xmlns="http://www.w3.org/2000/svg" viewBox="0 0 663.46 392.43"><defs><style>.cls-1{fill:#fff;}.cls-2{fill:none;stroke:#f8a61f;stroke-width:5px;}</style></defs><path class="cls-1" d="M23.06,6.24H646.48c10.56,0,19.11,12,19.11,26.79V371.36c0,14.79-8.55,26.78-19.11,26.78H23.06C12.5,398.14,4,386.15,4,371.36V33C4,18.24,12.5,6.24,23.06,6.24Z" transform="translate(-3.04 -5.98)"/><path class="cls-2" d="M23.06,8.48H646.48c9.68,0,17.52,11,17.52,24.55V371.36c0,13.56-7.84,24.55-17.52,24.55H23.06c-9.68,0-17.52-11-17.52-24.55V33C5.54,19.47,13.38,8.48,23.06,8.48Z" transform="translate(-3.04 -5.98)"/></svg>