<svg xmlns="http://www.w3.org/2000/svg" width="109.003" height="109" viewBox="0 0 109.003 109"><defs><style>.a{fill:#fff;}</style></defs><path class="a" d="M120.172,112.748H105.6V20.468a1.871,1.871,0,0,0-1.662-1.859l-49.2-5.553a1.872,1.872,0,0,0-2.081,1.86V18.6h-21.3a1.872,1.872,0,0,0-1.872,1.872v92.281H14.916a1.872,1.872,0,0,0,0,3.743H52.659v3.68a1.872,1.872,0,0,0,1.872,1.872,1.725,1.725,0,0,0,.214-.012l49.092-5.54h16.338a1.872,1.872,0,1,0,0-3.743ZM33.23,22.339H52.659v4.813H39.913a1.872,1.872,0,0,0-1.872,1.872v83.724H33.229Zm8.556,90.409V30.9H52.659v81.853ZM56.4,17.01l45.456,5.134v90.8L56.4,118.082Z" transform="translate(-13.044 -13.044)"/><path class="a" d="M61.487,58.792a5.57,5.57,0,1,0,5.57,5.57,5.57,5.57,0,0,0-5.57-5.57Zm0,7.4a1.827,1.827,0,1,1,1.827-1.827A1.827,1.827,0,0,1,61.487,66.189Z" transform="translate(-10.062 -9.862)"/></svg>