<svg xmlns="http://www.w3.org/2000/svg" width="87" height="87.003" viewBox="0 0 87 87.003"><defs><style>.a{fill:#fff;}</style></defs><g transform="translate(93.992 415)"><g transform="translate(-93.992 -415)"><path class="a" d="M77.061.266a4.653,4.653,0,0,0-6.2,4.419V13.6H35.06a4.642,4.642,0,0,0-3.3,1.369l-3.4,3.4a2.126,2.126,0,0,1-3,0l-3.4-3.4a4.642,4.642,0,0,0-3.3-1.369h-2.5V4.685A4.692,4.692,0,0,0,14.174.864a4.587,4.587,0,0,0-4.219-.6A14.888,14.888,0,0,0,.008,14.3V72.135A14.885,14.885,0,0,0,14.876,87H49.641a4.642,4.642,0,0,0,3.3-1.369l3.4-3.4a2.126,2.126,0,0,1,3,0l3.4,3.4A4.643,4.643,0,0,0,66.05,87h6.09a14.774,14.774,0,0,0,8.581-2.725A1.274,1.274,0,0,0,79.248,82.2a12.237,12.237,0,0,1-7.108,2.256H66.05a2.109,2.109,0,0,1-1.5-.622l-3.4-3.4a4.679,4.679,0,0,0-6.609,0l-3.4,3.4a2.109,2.109,0,0,1-1.5.622H14.876a12.321,12.321,0,0,1-2.484-24.388,4.688,4.688,0,0,0,3.759-4.557V46.845a1.274,1.274,0,1,0-2.549,0v8.664a2.1,2.1,0,0,1-1.721,2.06,14.85,14.85,0,0,0-9.324,6.262V14.3A12.336,12.336,0,0,1,10.8,2.672a2.069,2.069,0,0,1,1.9.272,2.112,2.112,0,0,1,.9,1.742V41.747a1.274,1.274,0,0,0,2.549,0v-25.6h2.5a2.109,2.109,0,0,1,1.5.622l3.4,3.4a4.679,4.679,0,0,0,6.609,0l3.4-3.4a2.109,2.109,0,0,1,1.5-.622H70.865V32.666a4.642,4.642,0,0,0,1.369,3.3l3.4,3.4a2.124,2.124,0,0,1,0,3l-3.4,3.4a4.643,4.643,0,0,0-1.369,3.3v6.434a4.688,4.688,0,0,0,3.759,4.557,12.324,12.324,0,0,1,7.707,18.992,1.274,1.274,0,1,0,2.107,1.434,14.792,14.792,0,0,0,2.57-8.358V14.3A14.888,14.888,0,0,0,77.061.266Zm-1.926,57.3a2.1,2.1,0,0,1-1.721-2.06V49.075a2.11,2.11,0,0,1,.622-1.5l3.4-3.4a4.678,4.678,0,0,0,0-6.609l-3.4-3.4a2.138,2.138,0,0,1-.622-1.5V4.685a2.125,2.125,0,0,1,2.112-2.133,2.09,2.09,0,0,1,.692.12A12.336,12.336,0,0,1,84.459,14.3V63.83A14.849,14.849,0,0,0,75.135,57.569Z" transform="translate(-0.008 0)"/><path class="a" d="M145.252,151.934a6.372,6.372,0,1,0-6.372,6.372A6.379,6.379,0,0,0,145.252,151.934Zm-6.372,3.823a3.823,3.823,0,1,1,3.823-3.823A3.828,3.828,0,0,1,138.88,155.757Z" transform="translate(-109.993 -120.828)"/><path class="a" d="M333.482,317.761a1.275,1.275,0,0,0-1.8,0l-2.5,2.5-2.5-2.5a1.274,1.274,0,0,0-1.8,1.8l2.5,2.5-2.5,2.5a1.275,1.275,0,0,0,1.8,1.8l2.5-2.5,2.5,2.5a1.275,1.275,0,0,0,1.8-1.8l-2.5-2.5,2.5-2.5a1.275,1.275,0,0,0,0-1.8Z" transform="translate(-269.369 -263.457)"/><path class="a" d="M233.782,178.111h1.274a1.274,1.274,0,0,0,0-2.549h-1.274a1.274,1.274,0,0,0,0,2.549Z" transform="translate(-193.001 -145.73)"/><path class="a" d="M347.986,206.775l.064,0a1.275,1.275,0,0,0,1.272-1.211q.01-.2.01-.4a7.845,7.845,0,0,0-.421-2.544,1.274,1.274,0,0,0-2.412.825,5.3,5.3,0,0,1,.284,1.719q0,.135-.007.269A1.274,1.274,0,0,0,347.986,206.775Z" transform="translate(-287.566 -167.48)"/><path class="a" d="M274.526,176.836a1.274,1.274,0,0,0-1.274-1.274h-2.5a1.274,1.274,0,0,0,0,2.549h2.5A1.274,1.274,0,0,0,274.526,176.836Z" transform="translate(-223.686 -145.73)"/><path class="a" d="M285.347,254.328a1.274,1.274,0,0,0-1.274-1.274h-2.5a1.274,1.274,0,0,0,0,2.549h2.5A1.274,1.274,0,0,0,285.347,254.328Z" transform="translate(-232.668 -210.055)"/><path class="a" d="M317.321,179.018a1.275,1.275,0,0,0,.591-2.4,7.8,7.8,0,0,0-2.847-.851,1.274,1.274,0,1,0-.254,2.536,5.249,5.249,0,0,1,1.92.574A1.272,1.272,0,0,0,317.321,179.018Z" transform="translate(-260.367 -145.892)"/><path class="a" d="M325.411,246.283a1.271,1.271,0,0,0,.473-.091,7.83,7.83,0,0,0,2.5-1.6,1.275,1.275,0,1,0-1.756-1.847,5.291,5.291,0,0,1-1.689,1.084,1.275,1.275,0,0,0,.474,2.458Z" transform="translate(-269.06 -201.202)"/><path class="a" d="M202.815,427.215a1.278,1.278,0,0,0,.343-.047,9.122,9.122,0,0,0,2.631-1.212,1.274,1.274,0,0,0-1.419-2.117,6.581,6.581,0,0,1-1.9.874,1.275,1.275,0,0,0,.342,2.5Z" transform="translate(-167.296 -351.64)"/><path class="a" d="M193.17,255.6h2.5a1.274,1.274,0,0,0,0-2.549h-2.5a1.274,1.274,0,1,0,0,2.549Z" transform="translate(-159.29 -210.055)"/><path class="a" d="M160.342,423.477a9.151,9.151,0,0,0,2.513,1.438,1.274,1.274,0,0,0,.9-2.385,6.611,6.611,0,0,1-1.814-1.038,1.274,1.274,0,1,0-1.6,1.985Z" transform="translate(-132.704 -349.637)"/><path class="a" d="M233.574,391.338a1.273,1.273,0,0,0,1.632-.764,9.14,9.14,0,0,0,.543-2.843,1.274,1.274,0,0,0-1.235-1.313h-.04a1.274,1.274,0,0,0-1.273,1.236,6.6,6.6,0,0,1-.392,2.053,1.274,1.274,0,0,0,.764,1.632Z" transform="translate(-193.189 -320.757)"/><path class="a" d="M143.782,298.992a1.274,1.274,0,0,0,1.274-1.274v-2.5a1.274,1.274,0,0,0-2.549,0v2.5A1.274,1.274,0,0,0,143.782,298.992Z" transform="translate(-118.294 -243.993)"/><path class="a" d="M142.508,341.917a1.274,1.274,0,0,0,2.549,0v-2.5a1.274,1.274,0,0,0-2.549,0Z" transform="translate(-118.294 -280.682)"/><path class="a" d="M153.987,261.184a5.306,5.306,0,0,1,1.566-1.257,1.274,1.274,0,0,0-1.191-2.253,7.85,7.85,0,0,0-2.315,1.857,1.274,1.274,0,0,0,1.941,1.653Z" transform="translate(-125.959 -213.766)"/><path class="a" d="M142.508,384.059a9.2,9.2,0,0,0,.307,2.359,1.274,1.274,0,0,0,2.464-.654,6.658,6.658,0,0,1-.221-1.706v-.447a1.274,1.274,0,0,0-2.549,0Z" transform="translate(-118.294 -317.37)"/><path class="a" d="M239.874,253.054h-2.5a1.274,1.274,0,0,0,0,2.549h2.5a1.274,1.274,0,0,0,0-2.549Z" transform="translate(-195.979 -210.055)"/><path class="a" d="M242.543,350.2a5.315,5.315,0,0,1,1.272-1.555,1.274,1.274,0,0,0-1.635-1.955,7.855,7.855,0,0,0-1.879,2.3,1.274,1.274,0,1,0,2.242,1.213Z" transform="translate(-199.342 -287.533)"/><path class="a" d="M278.282,339.936h1.274a1.274,1.274,0,0,0,0-2.549h-1.274a1.274,1.274,0,1,0,0,2.549Z" transform="translate(-229.94 -280.058)"/></g></g></svg>