<svg id="Layer_1" data-name="Layer 1" xmlns="http://www.w3.org/2000/svg" viewBox="0 0 862.06 368.83"><defs><style>.cls-1{fill:#fff;}.cls-2{fill:none;stroke:#f8a61f;stroke-width:5px;}</style></defs><path class="cls-1" d="M29.59,5H841.06a25,25,0,0,1,24.87,25.15V347.87A25,25,0,0,1,841.06,373H29.59A25,25,0,0,1,4.72,347.87V30.15A25,25,0,0,1,29.59,5Z" transform="translate(-4.3 -4.6)"/><path class="cls-2" d="M29.59,7.1H841.06a22.93,22.93,0,0,1,22.8,23V347.87a22.93,22.93,0,0,1-22.8,23.05H29.59A22.92,22.92,0,0,1,6.8,347.87V30.15A22.92,22.92,0,0,1,29.59,7.1Z" transform="translate(-4.3 -4.6)"/></svg>