<svg id="Layer_1" data-name="Layer 1" xmlns="http://www.w3.org/2000/svg" xmlns:xlink="http://www.w3.org/1999/xlink" viewBox="0 0 668.38 517.05"><defs><style>.cls-1{filter:url(#Union_7);}.cls-2{fill:#fff;}.cls-3{fill:#f8a61f;}</style><filter id="Union_7" x="0" y="0" width="1098.81" height="562.04" name="Union_7"><feOffset dx="3" dy="3"/><feGaussianBlur result="blur" stdDeviation="10"/><feFlood flood-opacity="0.48"/><feComposite operator="in" in="blur"/><feComposite in="SourceGraphic"/></filter></defs><g class="cls-1"><g id="Union_7-2" data-name="Union 7-2"><path class="cls-2" d="M46,516.61l31.58-120,.82-3.14H57A27.48,27.48,0,0,1,29.5,366V42A27.48,27.48,0,0,1,57,14.5H665.38A27.48,27.48,0,0,1,692.88,42V366a27.46,27.46,0,0,1-8,19.45,27.42,27.42,0,0,1-19.45,8H134.51l-.74,1Z" transform="translate(-27 -12)"/><path class="cls-3" d="M51.9,504.17,131.74,393l1.49-2.08H665.38a25,25,0,0,0,25-25V42a25,25,0,0,0-25-25H57A25,25,0,0,0,32,42V366a25,25,0,0,0,25,25H81.69L80,397.23,51.9,504.17M40.19,529.05,75.2,396H57a30,30,0,0,1-30-30V42A30,30,0,0,1,57,12H665.38a30,30,0,0,1,30,30V366a30,30,0,0,1-30,30H135.8Z" transform="translate(-27 -12)"/></g></g></svg>