<svg id="Layer_1" data-name="Layer 1" xmlns="http://www.w3.org/2000/svg" viewBox="0 0 391.13 108.34"><defs><style>.cls-1{fill:#fff;}.cls-2{fill:none;stroke:#f8a61f;stroke-width:5px;}</style></defs><path class="cls-1" d="M19.21,5.1H384.79C391,5.1,396,8.3,396,12.25V102.5c0,3.94-5,7.14-11.21,7.14H19.21C13,109.64,8,106.44,8,102.5V12.25C8,8.3,13,5.1,19.21,5.1Z" transform="translate(-6.43 -3.2)"/><path class="cls-2" d="M19.21,5.7H384.79c5.68,0,10.28,2.93,10.28,6.55V102.5c0,3.61-4.6,6.54-10.28,6.54H19.21c-5.68,0-10.28-2.93-10.28-6.54V12.25C8.93,8.63,13.53,5.7,19.21,5.7Z" transform="translate(-6.43 -3.2)"/></svg>